<svg width="16" height="16" viewBox="0 0 16 16" fill="none" xmlns="http://www.w3.org/2000/svg">
<rect x="4" y="12.8" width="9.6" height="8" transform="rotate(-90 4 12.8)" fill="#212121"/>
<path d="M7.06667 10.8L11.7667 6.1L10.8333 5.16667L7.06667 8.93333L5.16667 7.03333L4.23333 7.96667L7.06667 10.8ZM3.33333 14C2.96667 14 2.65289 13.8696 2.392 13.6087C2.13111 13.3478 2.00044 13.0338 2 12.6667V3.33333C2 2.96667 2.13067 2.65289 2.392 2.392C2.65333 2.13111 2.96711 2.00044 3.33333 2H12.6667C13.0333 2 13.3473 2.13067 13.6087 2.392C13.87 2.65333 14.0004 2.96711 14 3.33333V12.6667C14 13.0333 13.8696 13.3473 13.6087 13.6087C13.3478 13.87 13.0338 14.0004 12.6667 14H3.33333Z" fill="#C9D2EA"/>
</svg>
