<svg width="16" height="16" viewBox="0 0 16 16" fill="none" xmlns="http://www.w3.org/2000/svg">
<g clip-path="url(#clip0_52_36650)">
<path fill-rule="evenodd" clip-rule="evenodd" d="M5.58475 14.9267C7.92859 14.9267 9.93522 13.6241 10.7636 11.7774C10.7738 11.7549 7.43772 12.6444 7.54409 12.33C7.59159 12.1896 9.63659 11.4425 11.1265 10.5711C11.9828 10.0703 12.3772 9.01006 12.3772 9.01006C12.3772 9.01006 10.9345 9.71053 10.2051 9.88822C8.73537 10.2463 7.44159 10.2078 7.44159 10.1705C7.44159 10.0898 9.58988 9.68159 12.5758 7.86206C13.9802 7.00622 14.3617 5.53203 14.3617 5.53203C14.3617 5.53203 12.8176 6.45178 11.8842 6.75543C9.67053 7.47553 7.65047 7.69253 7.65047 7.59509C7.65047 7.38647 9.42819 6.89762 11.313 5.98434C12.293 5.5095 13.1417 4.88912 14.1252 4.19921C15.7346 3.07043 16 1.06006 16 1.06006C16 1.06006 14.4127 2.08381 13.6381 2.42379C10.4419 3.82665 7.61966 4.56253 5.58475 4.72184C2.513 4.96234 0 7.10556 0 9.88822C0 12.6709 2.50037 14.9267 5.58475 14.9267Z" fill="#212121"/>
</g>
<defs>
<clipPath id="clip0_52_36650">
<rect width="16" height="16" fill="white"/>
</clipPath>
</defs>
</svg>
