<svg width="16" height="16" viewBox="0 0 16 16" fill="none" xmlns="http://www.w3.org/2000/svg">
<path fill-rule="evenodd" clip-rule="evenodd" d="M7.76553 13.3656C7.6155 13.5156 7.41206 13.5999 7.19993 13.5999C6.9878 13.5999 6.78435 13.5156 6.63433 13.3656L1.83433 8.56562C1.68435 8.4156 1.6001 8.21216 1.6001 8.00002C1.6001 7.78789 1.68435 7.58445 1.83433 7.43442L6.63433 2.63442C6.78521 2.4887 6.98729 2.40806 7.19705 2.40988C7.40681 2.41171 7.60746 2.49584 7.75578 2.64417C7.90411 2.7925 7.98824 2.99315 7.99007 3.2029C7.99189 3.41266 7.91125 3.61474 7.76553 3.76562L4.33113 7.20002L13.5999 7.20002C13.8121 7.20002 14.0156 7.28431 14.1656 7.43434C14.3156 7.58437 14.3999 7.78785 14.3999 8.00002C14.3999 8.2122 14.3156 8.41568 14.1656 8.56571C14.0156 8.71574 13.8121 8.80002 13.5999 8.80002H4.33113L7.76553 12.2344C7.9155 12.3844 7.99976 12.5879 7.99976 12.8C7.99976 13.0122 7.9155 13.2156 7.76553 13.3656Z" fill="#212121"/>
</svg>
