<svg width="156" height="157" viewBox="0 0 156 157" fill="none" xmlns="http://www.w3.org/2000/svg">
<circle cx="77.6015" cy="78.2551" r="33.8725" fill="white" fill-opacity="0.16"/>
<path fill-rule="evenodd" clip-rule="evenodd" d="M155.203 68.0934C150.221 29.6751 117.377 0 77.6014 0C37.826 0 4.98157 29.6751 0 68.0934H28.5735C33.2694 45.3181 53.4359 28.1949 77.6017 28.1949C101.768 28.1949 121.934 45.3181 126.63 68.0934H155.203ZM155.203 88.4169H126.63C121.934 111.192 101.768 128.315 77.6017 128.315C53.4359 128.315 33.2694 111.192 28.5735 88.4169H1.50457e-05C4.98164 126.835 37.826 156.51 77.6014 156.51C117.377 156.51 150.221 126.835 155.203 88.4169Z" fill="white" fill-opacity="0.16"/>
</svg>
