<svg width="16" height="16" viewBox="0 0 16 16" fill="none" xmlns="http://www.w3.org/2000/svg">
<g clip-path="url(#clip0_52_36709)">
<path fill-rule="evenodd" clip-rule="evenodd" d="M7.11657 1.60502e-08C5.98167 9.67028e-05 4.86324 0.271595 3.85461 0.791843C2.84597 1.31209 1.97637 2.066 1.31836 2.99068C0.660353 3.91536 0.233014 4.98399 0.0719967 6.10741C-0.0890202 7.23083 0.0209549 8.37647 0.392747 9.44874C0.764539 10.521 1.38737 11.4888 2.20927 12.2715C3.03117 13.0541 4.0283 13.6288 5.11749 13.9476C6.20668 14.2665 7.35633 14.3203 8.47052 14.1045C9.58472 13.8887 10.6312 13.4096 11.5225 12.7071L14.5804 15.765C14.7383 15.9175 14.9498 16.0019 15.1694 16C15.3889 15.9981 15.5989 15.91 15.7542 15.7548C15.9094 15.5995 15.9975 15.3895 15.9994 15.17C16.0013 14.9504 15.9169 14.7389 15.7644 14.581L12.7065 11.5231C13.5337 10.4736 14.0488 9.21247 14.1928 7.88392C14.3368 6.55538 14.1038 5.21314 13.5205 4.01081C12.9373 2.80849 12.0273 1.79466 10.8948 1.08535C9.76225 0.376043 8.45289 -8.97127e-05 7.11657 1.60502e-08ZM1.67402 7.11717C1.67402 5.67372 2.24743 4.28939 3.26811 3.26871C4.28878 2.24804 5.67312 1.67463 7.11657 1.67463C8.56002 1.67463 9.94435 2.24804 10.965 3.26871C11.9857 4.28939 12.5591 5.67372 12.5591 7.11717C12.5591 8.56063 11.9857 9.94496 10.965 10.9656C9.94435 11.9863 8.56002 12.5597 7.11657 12.5597C5.67312 12.5597 4.28878 11.9863 3.26811 10.9656C2.24743 9.94496 1.67402 8.56063 1.67402 7.11717Z" fill="#212121"/>
</g>
<defs>
<clipPath id="clip0_52_36709">
<rect width="16" height="16" fill="white"/>
</clipPath>
</defs>
</svg>
